#!OML:ASF H:\Terrain\Patient Classification 1\Takeo\Monday\TakeoMonday.ASF
:FULLY-SPECIFIED
:DEGREES
158
root 8.94076 16.9571 25.7704 -6.35985 -2.03002 5.8978
lowerback 11.314 0.454695 -6.59678
upperback 2.81414 -0.271015 -2.73507
thorax -3.37736 -0.0983205 0.895383
lowerneck -12.1916 0.11973 -1.48895
upperneck -7.83871 0.422489 3.11046
head -0.439377 0.262791 1.22818
rclavicle -9.51682e-015 4.25399e-014
rhumerus -50.908 18.912 -97.0154
rradius 83.7224
rwrist -5.88232
rhand -39.8308 50.8839
rfingers 7.12502
rthumb -12.8047 21.2966
lclavicle -9.51682e-015 4.25399e-014
lhumerus -42.6563 -13.6516 87.3315
lradius 101.453
lwrist 26.7512
lhand -33.8377 2.26512
lfingers 7.12502
lthumb -7.02291 32.1286
rfemur -8.53231 3.2653 14.139
rtibia 91.0759
rfoot -6.49844 -18.1524
rtoes -17.4999
lfemur -12.8491 -2.4984 -33.9405
ltibia 47.054
lfoot -21.8879 3.62369
ltoes 1.14224
159
root 8.91125 16.9038 25.9975 -4.29319 -1.7645 0.66825
lowerback 11.8051 -0.0817626 -1.80518
upperback 1.77012 -0.401535 -1.19919
thorax -4.7615 -0.1769 -0.171896
lowerneck -12.3957 0.0118309 -1.79093
upperneck -7.62775 0.32741 3.62326
head -0.336347 0.229296 1.44303
rclavicle 1.44119e-015 -3.97569e-015
rhumerus -52.7977 17.1411 -96.5879
rradius 82.182
rwrist -5.57778
rhand -40.1508 50.4319
rfingers 7.12502
rthumb -13.1132 20.8642
lclavicle 1.44119e-015 -3.97569e-015
lhumerus -40.5166 -15.2755 87.4201
lradius 102.08
lwrist 26.4565
lhand -33.5197 2.09542
lfingers 7.12502
lthumb -6.71588 31.9689
rfemur -14.433 3.14659 20.9302
rtibia 92.9888
rfoot -5.922 -20.0906
rtoes -17.7592
lfemur -15.1793 -2.57145 -27.9314
ltibia 48.6592
lfoot -22.3173 2.27451
ltoes 3.08504
160
root 8.93244 16.8744 26.3363 -4.80522 -1.71675 -0.821702
lowerback 13.0257 -0.291881 -0.178522
upperback 1.72999 -0.45815 -0.750525
thorax -5.48788 -0.228991 -0.607163
lowerneck -12.1843 0.0107892 -2.17601
upperneck -7.66788 0.380436 3.9786
head -0.383666 0.265167 1.6261
rclavicle 1.01629e-014 3.57812e-015
rhumerus -54.4368 15.9267 -96.2009
rradius 80.3096
rwrist -5.87097
rhand -40.4678 49.8059
rfingers 7.12502
rthumb -13.4187 20.2581
lclavicle 1.01629e-014 3.57812e-015
lhumerus -38.6236 -16.5348 87.5734
lradius 102.907
lwrist 26.1248
lhand -33.6665 1.26779
lfingers 7.12502
lthumb -6.85767 31.1367
rfemur -16.2662 3.67122 22.9975
rtibia 94.0286
rfoot -6.63287 -20.6135
rtoes -17.4058
lfemur -13.5416 -1.91407 -26.3441
ltibia 49.5511
lfoot -23.6889 1.58353
ltoes 0.89014
161
root 8.94454 16.8955 26.7355 -5.1638 -1.25203 -0.869493
lowerback 12.8305 -0.513314 -0.0423303
upperback 2.16988 -0.72863 -0.763311
thorax -4.92127 -0.363848 -0.65308
lowerneck -12.4581 -0.0868724 -2.14422
upperneck -7.75862 0.249852 3.90135
head -0.364496 0.200519 1.59221
rclavicle -8.24956e-015 8.74653e-015
rhumerus -55.4475 14.875 -95.9781
rradius 78.4963
rwrist -7.35978
rhand -40.1969 49.5938
rfingers 7.12502
rthumb -13.1575 20.029
lclavicle -8.24956e-015 8.74653e-015
lhumerus -36.2403 -17.9182 87.2716
lradius 103.901
lwrist 26.0683
lhand -33.6664 0.97844
lfingers 7.12502
lthumb -6.85758 30.8474
rfemur -17.6879 3.79112 23.1572
rtibia 94.5219
rfoot -7.79948 -20.7221
rtoes -17.7298
lfemur -11.463 -1.80233 -26.4731
ltibia 49.906
lfoot -24.664 1.81961
ltoes -2.52722
162
root 8.92127 16.88 27.1283 -5.36158 -1.80431 -1.96721
lowerback 12.7402 -0.409348 0.69574
upperback 2.33637 -0.466809 -0.310293
thorax -4.69528 -0.242735 -0.64028
lowerneck -10.8623 0.277961 -3.29405
upperneck -9.29114 0.908955 4.73709
head -1.1421 0.538415 2.08522
rclavicle -3.50358e-015 8.34896e-015
rhumerus -56.8278 13.786 -95.6183
rradius 77.2342
rwrist -8.95104
rhand -40.4373 49.7047
rfingers 7.12502
rthumb -13.3893 20.155
lclavicle -3.50358e-015 8.34896e-015
lhumerus -34.3936 -19.1897 87.238
lradius 105.08
lwrist 25.9153
lhand -33.1198 1.35968
lfingers 7.12502
lthumb -6.32989 31.2451
rfemur -19.6253 5.06549 24.9537
rtibia 94.8431
rfoot -8.71577 -21.5071
rtoes -18.0163
lfemur -9.40194 -0.939045 -25.2793
ltibia 49.6649
lfoot -24.8536 3.54595
ltoes -11.5071
163
root 8.95104 16.9561 27.5159 -4.29832 -0.94292 -0.461687
lowerback 12.5311 -0.538059 -0.65502
upperback 1.36219 -0.831686 -0.454244
thorax -5.59373 -0.398799 0.0353951
lowerneck -10.755 0.216053 -3.80429
upperneck -8.56617 0.843858 4.54443
head -0.925053 0.522692 2.10963
rclavicle -8.94531e-016 2.44505e-014
rhumerus -59.3538 12.7551 -94.9089
rradius 76.4507
rwrist -9.91522
rhand -41.0766 49.7262
rfingers 7.12502
rthumb -14.0054 20.218
lclavicle -8.94531e-016 2.44505e-014
lhumerus -34.0329 -20.4188 88.289
lradius 106.388
lwrist 25.328
lhand -32.8642 1.37918
lfingers 7.12502
lthumb -6.08309 31.2719
rfemur -22.5616 4.83053 22.7212
rtibia 94.7346
rfoot -10.0886 -20.9844
rtoes -17.2671
lfemur -8.78864 -1.91394 -27.2291
ltibia 48.8711
lfoot -24.6508 2.59011
ltoes -8.42743
164
root 8.95162 16.9833 27.8902 -3.5973 -0.420201 -0.0742236
lowerback 11.1385 -0.697686 -1.17541
upperback 1.71948 -1.08547 -0.391573
thorax -4.43347 -0.520806 0.414249
lowerneck -11.2579 0.237244 -3.85974
upperneck -9.06192 0.900049 4.4149
head -1.00497 0.556973 2.08119
rclavicle -1.0635e-014 6.75868e-015
rhumerus -59.5423 12.0009 -94.1564
rradius 74.8824
rwrist -10.2802
rhand -41.4738 50.8626
rfingers 7.12502
rthumb -14.3882 21.3812
lclavicle -1.0635e-014 6.75868e-015
lhumerus -31.6465 -21.9232 88.2596
lradius 107.503
lwrist 24.8693
lhand -33.2673 1.32216
lfingers 7.12502
lthumb -6.47229 31.2033
rfemur -25.3753 4.83692 22.2052
rtibia 94.4584
rfoot -11.0157 -20.7984
rtoes -18.5867
lfemur -8.02634 -2.30748 -27.7416
ltibia 48.3688
lfoot -24.1998 1.95952
ltoes -6.50843
165
root 8.94594 17.0211 28.2711 -3.34421 0.0649446 0.416409
lowerback 10.5736 -1.01509 -2.09163
upperback 1.80438 -1.59783 -0.350813
thorax -3.99744 -0.765606 1.03291
lowerneck -10.8852 0.514912 -3.71142
upperneck -9.71901 1.25774 4.39044
head -1.2933 0.724523 2.0548
rclavicle 1.42752e-014 6.95746e-015
rhumerus -59.9277 11.793 -93.8991
rradius 72.4741
rwrist -9.73783
rhand -42.451 52.0719
rfingers 7.12502
rthumb -15.3296 22.6601
lclavicle 1.42752e-014 6.95746e-015
lhumerus -30.1982 -22.8409 88.0732
lradius 108.706
lwrist 24.8432
lhand -33.6207 1.35052
lfingers 7.12502
lthumb -6.81347 31.2209
rfemur -27.406 4.88011 21.6333
rtibia 93.5918
rfoot -12.2271 -20.3707
rtoes -22.3432
lfemur -6.56393 -2.7022 -28.3396
ltibia 47.6969
lfoot -23.4125 1.14473
ltoes -3.29309
166
root 8.9449 17.0706 28.66 -3.32008 0.463221 0.378081
lowerback 10.1487 -1.25431 -2.25292
upperback 2.0418 -1.91033 -0.173039
thorax -3.49326 -0.926356 1.33447
lowerneck -11.0051 0.615262 -3.9119
upperneck -9.98864 1.42358 4.45804
head -1.37152 0.813888 2.11858
rclavicle -6.39838e-015 1.37161e-014
rhumerus -61.2403 10.7771 -93.0896
rradius 73.0911
rwrist -8.56662
rhand -42.9698 50.1434
rfingers 7.12502
rthumb -15.8293 20.7705
lclavicle -6.39838e-015 1.37161e-014
lhumerus -28.5484 -23.7224 87.8905
lradius 109.719
lwrist 25.1117
lhand -33.0205 1.05087
lfingers 7.12502
lthumb -6.23399 30.9391
rfemur -28.6547 5.1304 21.6756
rtibia 92.0468
rfoot -12.0125 -20.3648
rtoes -22.0151
lfemur -4.87101 -2.97667 -28.3315
ltibia 47.1488
lfoot -22.673 0.413201
ltoes -1.97969
